<svg xmlns="http://www.w3.org/2000/svg" width="35" height="49" viewBox="0 0 35 49"><g fill="none" fill-rule="evenodd"><ellipse cx="17.5" cy="44.7" fill="#000" opacity=".19" rx="10.4" ry="3.3"/><path fill="#76AA5B" d="M17.5 0C8.1 0 .5 7.5.5 16.8s17 28 17 28 17-18.7 17-28S26.9 0 17.5 0z"/><circle cx="17.5" cy="15.5" r="4.2" fill="#638750"/><path fill="#4D683F" d="M17.5 12.2c2.2 0 3.9 1.6 4.2 3.8 0-.2.1-.3.1-.5 0-2.3-1.9-4.2-4.2-4.2-2.3 0-4.2 1.9-4.2 4.2 0 .2 0 .3.1.5.1-2.1 1.8-3.8 4-3.8z"/></g></svg>